<svg xmlns="http://www.w3.org/2000/svg" height="48" viewBox="0 96 960 960" width="48">
<path d="M479 963.5 423 913q-107.766-99.072-177.919-171.093-70.152-72.021-111.901-128.866-41.749-56.844-57.964-103.916Q59 462.053 59 413.5q0-99.505 66.498-166.502Q191.995 180 290.5 180q55.288 0 103.144 24Q441.5 228 479 275.5q44-50 89.185-72.75Q613.371 180 667.629 180q99.38 0 166.376 66.943Q901 313.886 901 413.308q0 48.73-16.216 95.309-16.215 46.58-57.964 103.424-41.749 56.845-112.401 129.366Q643.766 813.928 536 913l-57 50.5Z"/>
</svg>