<?xml version="1.0" standalone="yes"?>
<svg xmlns="http://www.w3.org/2000/svg" width="438" height="105">
<path style="fill:#282828; stroke:none;" d="M0 0L0 105L438 105L438 0L0 0z"/>
<path style="fill:#ff2121; stroke:none;" d="M350 3C350.072 29.2755 370.921 46.7748 385 67C379.122 68.8972 377.786 73.1736 373.446 76.9105C364.305 84.7807 356.999 88.3441 354 101C360.454 96.4547 365.57 91.1431 373 87.9506C385.365 82.6378 398.689 81.4984 408.996 71.9066C419.534 62.1008 419.323 41.99 434 37C431.868 21.052 408.606 19.1009 401 32C395.794 19.3143 379.377 16.929 368 11.2407C362.062 8.27161 356.63 4.18187 350 3z"/>
<path style="fill:#ffffff; stroke:none;" d="M132 18L132 23C141.426 25.677 140 36.0735 140 44C132.383 41.8276 125.638 39.4356 118.004 43.5687C106.29 49.9105 103.973 71.2963 113.34 80.6597C122.846 90.1614 144.762 86 157 86L157 80C148.915 77.6745 150 69.9596 150 63L150 16L132 18M254.228 16.7461C247.441 19.8075 252.7 30.4434 259.772 27.2539C266.559 24.1925 261.3 13.5566 254.228 16.7461M327 18L327 23C336.426 25.677 335 36.0734 335 44C327.581 41.4951 320.43 39.548 313.004 43.5687C301.29 49.9105 298.973 71.2963 308.34 80.6597C317.846 90.1614 339.762 86 352 86L352 80C343.915 77.6745 345 69.9596 345 63L345 16L327 18M3 17L3 22C17.7752 24.9834 13 47.7462 13 59C13 63.4441 13.7439 68.7697 12.1065 72.9961C10.4855 77.1803 7.17027 79.1579 3 80L3 85L36 85L36 80C23.3806 77.4521 26 63.8792 26 54C37.3586 56.3109 44.1117 74.9702 47 85L66 85L66 80C56.2292 75.3443 51.8121 60.1457 47 51C59.198 46.85 61.239 27.2625 49.9599 20.5332C37.7451 13.2457 16.6753 17 3 17M182 17L182 22C196.775 24.9834 192 47.7462 192 59C192 63.4441 192.744 68.7697 191.106 72.9961C189.485 77.1803 186.17 79.1579 182 80L182 85C197.032 85 222.593 89.7676 235.985 81.9105C248.028 74.8444 244.862 52.8312 232 49C233.729 46.1253 235.848 43.3253 236.606 40C243.602 9.29612 200.242 17 182 17z"/>
<path style="fill:#282828; stroke:none;" d="M26 22L26 49C47.2223 48.822 47.2222 22.178 26 22M205 22L205 47C209.479 46.997 214.165 47.316 217.956 44.4861C225.264 39.0311 224.123 27.3732 215.985 23.179C212.708 21.4906 208.567 22.0004 205 22z"/>
<path style="fill:#a4a4a4; stroke:none;" d="M408 25L409 26L408 25M403 28L404 29L403 28M402 29L403 30L402 29z"/>
<path style="fill:#ffffff; stroke:none;" d="M103 72L99 72C96.7705 79.2276 88.6209 80.0219 83.1852 75.4421C78.3403 71.3601 76.4964 65.0692 76 59L103 59C102.989 41.8938 84.2974 34.6488 71.1852 46.3904C66.08 50.962 65.0011 57.4956 65.0015 64C65.0021 71.913 67.4606 79.6671 75.0008 83.5471C86.2772 89.3497 102.949 86.3112 103 72M285 46L284 46L284 42L269 43L269 48C276.207 51.5553 279.691 76.6047 269.957 79.2878C265.9 80.406 262.881 76.5256 262.228 72.9961C260.43 63.2653 262 51.8957 262 42L246 43L246 48C255.158 52.5181 255.62 76.9454 245 80L245 85L292 85L292 80C279.272 75.566 286.391 57.4634 288 48L303 52C302.992 41.475 291.61 35.7943 285 46z"/>
<path style="fill:#282828; stroke:none;" d="M77 54L93 54C89.6145 44.1314 81.3179 45.752 77 54M129 46.7824C119.103 50.0963 117.58 63.7365 120.931 72C122.686 76.3286 126.517 81.9949 131.995 80.2137C143.809 76.3726 142.351 42.3122 129 46.7824M324 46.7577C314.16 50.2443 312.535 63.6275 315.931 72C317.66 76.2643 321.553 82.0485 326.995 80.3526C338.981 76.6178 337.169 42.0917 324 46.7577M205 52C205 58.5638 203.728 66.6555 205.573 72.9961C210.475 89.8474 239.23 71.8779 224.606 56.2245C222.827 54.3193 220.513 53.145 218 52.5332C213.847 51.522 209.244 52 205 52z"/>
<path style="fill:#545454; stroke:none;" d="M376 53L377 54L376 53M357 90L358 91L357 90M363 92L364 93L363 92M355 94L356 95L355 94M361 94L362 95L361 94z"/>
<path style="fill:#a4a4a4; stroke:none;" d="M355 95L356 96L355 95z"/>
<path style="fill:#545454; stroke:none;" d="M360 95L361 96L360 95M355 100L356 101L355 100z"/>
</svg>